<svg xmlns="http://www.w3.org/2000/svg" xmlns:xlink="http://www.w3.org/1999/xlink" viewBox="0 0 1024 1024">
  <!-- cast icon: three masks, one per person. Source of .claude-plugin/icon.png -->
  <defs>
    <g id="face">
      <path d="M-118 -55 Q-72 -100 -26 -55 Q-72 -38 -118 -55Z"/>
      <path d="M-118 -55 Q-72 -100 -26 -55 Q-72 -38 -118 -55Z" transform="scale(-1 1)"/>
      <path d="M-88 50 Q0 150 88 50 Q0 95 -88 50Z"/>
    </g>
    <path id="mask" d="M-150 -185 C-60 -222 60 -222 150 -185 C178 -60 152 88 74 168 C38 204 -38 204 -74 168 C-152 88 -178 -60 -150 -185Z" stroke="#ffffff" stroke-width="20" paint-order="stroke"/>
  </defs>
  <rect width="1024" height="1024" fill="#ffffff"/>
  <g fill="#1f2328" transform="translate(512 512) scale(1.15) translate(-512 -512)">
    <g transform="translate(314 520) scale(0.95)"><use xlink:href="#mask" fill="#4fae6e"/><use xlink:href="#face"/></g>
    <g transform="translate(710 520) scale(0.95)"><use xlink:href="#mask" fill="#d9534f"/><use xlink:href="#face"/></g>
    <g transform="translate(512 520) scale(1.05)"><use xlink:href="#mask" fill="#3f9bd8"/><use xlink:href="#face"/></g>
  </g>
</svg>
